#!OML:ASF H:\Pregnant\Project 1\Capture day 1\Session 1\femalepreg.ASF
:FULLY-SPECIFIED
:DEGREES
512
root 9.84742 15.7951 -27.2352 -326.062 62.6309 11.7977
lowerback -12.5288 -6.29837 -10.0997
upperback -6.39053 -7.11535 2.37723
thorax 1.69967 -3.30378 7.111
lowerneck -6.52786 -18.3911 -9.42905
upperneck 11.6228 -25.0494 8.51157
head 6.83634 -12.0443 1.67585
rclavicle -1.70458e-014 7.7526e-015
rhumerus -46.1203 -6.16466 -62.3053
rradius 19.598
rwrist -1.45102
rhand -20.2796 -29.3621
rfingers 7.12502
rthumb 6.06992 -59.2551
lclavicle -1.70458e-014 7.7526e-015
lhumerus -20.3226 -14.7272 77.8957
lradius 79.9597
lwrist 50.042
lhand -28.7452 -9.58638
lfingers 7.12502
lthumb -2.10564 20.383
rfemur -59.4359 9.22421 16.906
rtibia 45.3737
rfoot -7.50077 -20.3455
rtoes -1.11289
lfemur -15.4664 -2.98727 -19.2675
ltibia 22.5532
lfoot -11.5089 7.69938
ltoes -43.6165
513
root 9.98046 15.7715 -27.1561 -325.949 62.0572 12.2481
lowerback -12.7145 -6.24473 -9.89329
upperback -6.34711 -7.05816 2.67623
thorax 1.85043 -3.28774 7.3079
lowerneck -6.68831 -18.3009 -9.78239
upperneck 11.4416 -24.7969 8.15851
head 6.77727 -11.9591 1.64427
rclavicle -3.09607e-014 -2.62396e-014
rhumerus -45.6642 -5.7896 -62.329
rradius 19.6526
rwrist -1.65128
rhand -20.5655 -29.4241
rfingers 7.12502
rthumb 5.79385 -59.3249
lclavicle -3.09607e-014 -2.62396e-014
lhumerus -21.1587 -14.7913 78.3543
lradius 81.3308
lwrist 49.4947
lhand -28.4814 -9.58772
lfingers 7.12502
lthumb -1.85082 20.384
rfemur -58.9781 8.73803 17.2721
rtibia 46.0562
rfoot -7.2461 -19.2401
rtoes 0.492799
lfemur -14.9364 -2.72602 -19.6701
ltibia 23.3088
lfoot -11.0637 7.23249
ltoes -44.3648
514
root 10.1122 15.746 -27.0755 -325.93 61.4761 12.6332
lowerback -12.8187 -6.24791 -9.74584
upperback -6.30768 -7.08582 3.12188
thorax 1.99407 -3.31314 7.68733
lowerneck -6.961 -18.1657 -10.367
upperneck 11.3092 -24.4476 7.78036
head 6.76885 -11.8311 1.63007
rclavicle -8.20981e-014 -3.4191e-014
rhumerus -44.9935 -4.9343 -62.4632
rradius 19.736
rwrist -2.05257
rhand -20.6796 -29.3036
rfingers 7.12502
rthumb 5.68368 -59.2074
lclavicle -8.20981e-014 -3.4191e-014
lhumerus -22.1695 -14.5876 78.9519
lradius 82.7162
lwrist 48.7951
lhand -28.121 -9.60535
lfingers 7.12502
lthumb -1.50278 20.3691
rfemur -58.5285 8.31537 17.6308
rtibia 46.8858
rfoot -7.51089 -17.9843
rtoes 2.13371
lfemur -14.6072 -2.41247 -20.0267
ltibia 24.4482
lfoot -10.5968 6.64734
ltoes -45.0231
515
root 10.2419 15.7198 -26.9949 -326.058 60.8982 12.906
lowerback -12.8484 -6.19353 -9.45022
upperback -6.24402 -7.05957 3.48039
thorax 2.08699 -3.3126 7.90649
lowerneck -7.18713 -18.0496 -10.8294
upperneck 11.14 -24.1469 7.464
head 6.73828 -11.7201 1.62017
rclavicle 6.06293e-015 -3.97569e-015
rhumerus -44.3298 -4.10958 -62.7774
rradius 19.8255
rwrist -2.46555
rhand -20.6376 -29.0287
rfingers 7.12502
rthumb 5.72422 -58.9314
lclavicle 6.06293e-015 -3.97569e-015
lhumerus -23.2351 -14.5173 79.4491
lradius 84.0688
lwrist 47.9813
lhand -27.6737 -9.62182
lfingers 7.12502
lthumb -1.07079 20.3552
rfemur -58.0587 8.03551 17.9173
rtibia 47.7574
rfoot -8.22895 -16.8005
rtoes 3.71176
lfemur -14.4824 -2.04194 -20.3126
ltibia 25.9898
lfoot -10.0685 5.9399
ltoes -45.6117
516
root 10.3693 15.6941 -26.9155 -326.356 60.324 13.0484
lowerback -12.8694 -6.06056 -9.053
upperback -6.0916 -6.94008 3.7688
thorax 2.23167 -3.27311 8.0073
lowerneck -7.39955 -17.9838 -11.1706
upperneck 10.8856 -23.9363 7.23298
head 6.68216 -11.6439 1.61418
rclavicle -5.17834e-014 -7.15625e-015
rhumerus -43.6005 -3.43264 -63.1867
rradius 19.8998
rwrist -2.86405
rhand -20.4494 -28.6073
rfingers 7.12502
rthumb 5.90598 -58.505
lclavicle -5.17834e-014 -7.15625e-015
lhumerus -24.2223 -14.6091 79.9029
lradius 85.3483
lwrist 47.0217
lhand -27.1587 -9.69672
lfingers 7.12502
lthumb -0.573381 20.2823
rfemur -57.529 7.92134 18.1288
rtibia 48.5799
rfoot -9.14357 -15.8501
rtoes 4.66853
lfemur -14.5523 -1.63143 -20.5166
ltibia 27.9256
lfoot -9.43907 5.11932
ltoes -46.0554
517
root 10.4941 15.6694 -26.8364 -326.873 59.7595 13.0044
lowerback -12.9264 -5.83938 -8.60835
upperback -5.80597 -6.70739 4.03135
thorax 2.50661 -3.1887 8.0661
lowerneck -7.61925 -17.9884 -11.389
upperneck 10.4957 -23.8383 7.08773
head 6.58945 -11.6134 1.6092
rclavicle -1.95803e-014 1.35174e-014
rhumerus -42.7413 -2.93369 -63.6267
rradius 19.9579
rwrist -3.23666
rhand -20.1558 -28.0803
rfingers 7.12502
rthumb 6.18943 -57.9699
lclavicle -1.95803e-014 1.35174e-014
lhumerus -24.9984 -14.839 80.391
lradius 86.462
lwrist 45.8839
lhand -26.5941 -9.85028
lfingers 7.12502
lthumb -0.0280141 20.1295
rfemur -56.8929 7.96594 18.3299
rtibia 49.2903
rfoot -10.0081 -15.1975
rtoes 4.92239
lfemur -14.8029 -1.17846 -20.6003
ltibia 30.2134
lfoot -8.65001 4.19694
ltoes -46.1729
518
root 10.6161 15.6468 -26.7588 -327.612 59.2092 12.7633
lowerback -12.9453 -5.54025 -8.04798
upperback -5.44971 -6.38929 4.24022
thorax 2.80208 -3.06462 8.01763
lowerneck -7.82678 -18.0329 -11.4351
upperneck 10.0487 -23.82 6.98482
head 6.46837 -11.6137 1.59108
rclavicle -8.64713e-015 2.06736e-014
rhumerus -41.8344 -2.56882 -64.1506
rradius 20.0084
rwrist -3.55528
rhand -19.783 -27.4345
rfingers 7.12502
rthumb 6.54931 -57.3132
lclavicle -8.64713e-015 2.06736e-014
lhumerus -25.6872 -15.2033 80.8669
lradius 87.4159
lwrist 44.565
lhand -26.0517 -10.0759
lfingers 7.12502
lthumb 0.495857 19.9033
rfemur -56.1124 8.12151 18.5794
rtibia 49.8555
rfoot -10.7493 -14.8407
rtoes 4.86374
lfemur -15.2083 -0.709559 -20.557
ltibia 32.7807
lfoot -7.62399 3.19151
ltoes -45.9701
519
root 10.7357 15.6267 -26.6822 -328.536 58.6709 12.3459
lowerback -12.9198 -5.19707 -7.41515
upperback -5.06576 -6.02648 4.43209
thorax 3.08761 -2.91636 7.91992
lowerneck -7.92074 -18.0861 -11.3472
upperneck 9.52361 -23.8426 6.9157
head 6.29641 -11.6321 1.5775
rclavicle 6.22196e-014 -4.77083e-015
rhumerus -40.8951 -2.22718 -64.7445
rradius 20.0482
rwrist -3.81898
rhand -19.3631 -26.7211
rfingers 7.12502
rthumb 6.95461 -56.5869
lclavicle 6.22196e-014 -4.77083e-015
lhumerus -26.432 -15.6642 81.3655
lradius 88.2923
lwrist 43.0876
lhand -25.5953 -10.3691
lfingers 7.12502
lthumb 0.936576 19.6086
rfemur -55.1904 8.34653 18.9154
rtibia 50.2674
rfoot -11.4554 -14.6553
rtoes 4.45609
lfemur -15.7463 -0.255749 -20.3932
ltibia 35.5341
lfoot -6.30619 2.13813
ltoes -45.3344
520
root 10.8533 15.6095 -26.6062 -329.59 58.1401 11.7874
lowerback -12.7988 -4.89901 -6.71655
upperback -4.71656 -5.74066 4.67947
thorax 3.30175 -2.79948 7.83664
lowerneck -8.01172 -18.0745 -11.2947
upperneck 9.06381 -23.7768 6.83008
head 6.14018 -11.6089 1.5729
rclavicle 2.76311e-014 3.49861e-014
rhumerus -39.8602 -1.60172 -65.4348
rradius 20.0696
rwrist -4.06096
rhand -18.9508 -25.9241
rfingers 7.12502
rthumb 7.35267 -55.7763
lclavicle 2.76311e-014 3.49861e-014
lhumerus -27.3842 -15.9362 81.9129
lradius 89.1043
lwrist 41.4809
lhand -25.1867 -10.7461
lfingers 7.12502
lthumb 1.33124 19.2295
rfemur -54.1576 8.59614 19.3541
rtibia 50.5393
rfoot -12.1545 -14.4787
rtoes 4.02981
lfemur -16.3959 0.166406 -20.1286
ltibia 38.3733
lfoot -4.67643 1.06279
ltoes -44.2262
521
root 10.9691 15.5957 -26.5306 -330.696 57.6136 11.1481
lowerback -12.573 -4.62703 -5.87491
upperback -4.45032 -5.50609 4.85313
thorax 3.36261 -2.696 7.58884
lowerneck -7.96964 -17.9904 -11.0841
upperneck 8.67012 -23.6501 6.72833
head 5.95967 -11.556 1.56511
rclavicle -1.1291e-013 -1.11319e-014
rhumerus -38.8931 -0.900112 -66.3116
rradius 20.074
rwrist -4.15292
rhand -18.5922 -25.0837
rfingers 7.12502
rthumb 7.69878 -54.9236
lclavicle -1.1291e-013 -1.11319e-014
lhumerus -28.6142 -16.1734 82.3534
lradius 89.8451
lwrist 39.7794
lhand -24.7943 -11.1918
lfingers 7.12502
lthumb 1.71027 18.7811
rfemur -53.0626 8.85571 19.8598
rtibia 50.6995
rfoot -12.8409 -14.2419
rtoes 3.85626
lfemur -17.1357 0.526504 -19.7994
ltibia 41.2067
lfoot -2.77956 -0.0150156
ltoes -42.6133
